<svg id="Layer_1" data-name="Layer 1" xmlns="http://www.w3.org/2000/svg" viewBox="0 0 99.21 39.01"><defs><style>.cls-1{fill:#333;}.cls-2{fill:#ffc425;}</style></defs><path class="cls-1" d="M60.72,19.93a4.06,4.06,0,0,1-.54,5.46,5.72,5.72,0,0,1-3.78,1.14H49.2V11.07h7a5.71,5.71,0,0,1,3.69,1.08,3.58,3.58,0,0,1,1.33,2.93,3.5,3.5,0,0,1-.72,2.26,3.66,3.66,0,0,1-1.9,1.26A3.62,3.62,0,0,1,60.72,19.93ZM53,17.32h2.47a2.13,2.13,0,0,0,1.42-.41,1.46,1.46,0,0,0,.5-1.2,1.51,1.51,0,0,0-.5-1.21,2.18,2.18,0,0,0-1.42-.41H53Zm4.24,5.74a1.52,1.52,0,0,0,.52-1.25,1.58,1.58,0,0,0-.54-1.27,2.19,2.19,0,0,0-1.48-.47H53v3.42h2.78A2.19,2.19,0,0,0,57.2,23.06Z"/><path class="cls-1" d="M85,11.07,81,26.53H76.39L73.93,16.35,71.37,26.53H66.82L62.9,11.07h4l2.22,11.25L71.9,11.07H76l2.65,11.25,2.24-11.25Z"/><path class="cls-1" d="M98.39,19.93a4,4,0,0,1-.54,5.46,5.68,5.68,0,0,1-3.77,1.14h-7.2V11.07h7a5.66,5.66,0,0,1,3.68,1.08,3.56,3.56,0,0,1,1.34,2.93,3.5,3.5,0,0,1-.72,2.26,3.7,3.7,0,0,1-1.9,1.26A3.56,3.56,0,0,1,98.39,19.93Zm-7.75-2.61h2.47a2.13,2.13,0,0,0,1.42-.41,1.46,1.46,0,0,0,.49-1.2,1.5,1.5,0,0,0-.49-1.21,2.18,2.18,0,0,0-1.42-.41H90.64Zm4.24,5.74a1.52,1.52,0,0,0,.52-1.25,1.58,1.58,0,0,0-.54-1.27,2.22,2.22,0,0,0-1.49-.47H90.64v3.42h2.78A2.19,2.19,0,0,0,94.88,23.06Z"/><polygon class="cls-1" points="15.56 4.24 27.14 16.06 31.66 11.86 19.8 0 15.56 4.24"/><polygon class="cls-2" points="18.84 23.34 27.32 31.55 39.33 19.53 34.57 14.98 26.84 22.82 23.19 19.06 18.84 23.34"/><polygon class="cls-1" points="23.77 34.78 12.19 22.96 7.68 27.16 19.53 39.01 23.77 34.78"/><polygon class="cls-2" points="20.49 15.67 12.02 7.46 0 19.48 4.76 24.03 12.49 16.2 16.14 19.96 20.49 15.67"/></svg>